<?xml version="1.0" standalone="no"?>
<!DOCTYPE svg PUBLIC "-//W3C//DTD SVG 20010904//EN"
 "http://www.w3.org/TR/2001/REC-SVG-20010904/DTD/svg10.dtd">
<svg version="1.0" xmlns="http://www.w3.org/2000/svg"
 width="260.000000pt" height="260.000000pt" viewBox="0 0 260.000000 260.000000"
 preserveAspectRatio="xMidYMid meet">
<metadata>
Created by potrace 1.11, written by Peter Selinger 2001-2013
</metadata>
<g transform="translate(0.000000,260.000000) scale(0.100000,-0.100000)"
fill="#000000" stroke="none">
<path d="M1421 2513 c-45 -39 -140 -375 -252 -893 -23 -107 -47 -200 -53 -206
-9 -9 -246 -104 -260 -104 -5 0 -34 207 -46 328 -14 141 -52 222 -104 222 -41
0 -49 -15 -59 -117 -6 -54 -27 -197 -46 -317 l-36 -219 -100 -42 c-130 -54
-145 -62 -302 -163 -92 -59 -133 -91 -133 -104 0 -31 30 -21 145 48 171 103
375 198 375 176 0 -5 -9 -57 -20 -118 -32 -171 -38 -216 -60 -432 -11 -112
-27 -253 -35 -314 -20 -153 -20 -178 4 -178 11 0 22 8 25 18 8 27 53 331 76
512 19 144 93 536 104 548 2 2 37 14 78 27 l73 23 7 -36 c4 -21 7 -73 7 -117
1 -44 6 -138 11 -210 5 -71 14 -187 19 -257 10 -150 22 -178 76 -178 27 0 39
7 58 32 32 44 28 29 103 371 59 271 84 383 115 499 10 37 11 38 117 72 59 18
144 48 190 64 l82 31 0 -407 c1 -419 2 -434 43 -712 32 -212 48 -253 84 -217
12 12 13 21 4 48 -32 98 -45 314 -48 816 l-4 502 112 36 c62 19 160 44 218 55
238 43 391 70 444 76 53 6 55 5 59 -17 2 -18 9 -24 27 -24 19 0 27 7 33 33 13
48 -3 69 -58 78 -91 13 -624 -73 -780 -126 l-51 -18 -6 221 c-5 234 -19 343
-63 507 -46 172 -108 237 -173 183z m79 -140 c47 -125 68 -287 77 -589 l6
-210 -134 -51 c-163 -62 -209 -76 -215 -70 -3 2 6 49 20 103 22 88 45 194 132
589 29 133 74 285 85 285 4 0 17 -26 29 -57z m-746 -838 c9 -82 19 -173 22
-201 l6 -50 -58 -22 c-32 -12 -60 -20 -62 -18 -2 2 8 77 22 167 14 90 29 202
32 249 9 107 17 83 38 -125z m342 -240 c-7 -18 -72 -353 -116 -595 -18 -96
-39 -188 -48 -205 l-16 -30 -7 35 c-3 19 -9 123 -13 231 -7 204 -23 452 -31
480 -4 13 18 25 107 57 129 47 132 47 124 27z"/>
</g>
</svg>
